<svg width="27" height="27" viewBox="0 0 27 27" fill="none" xmlns="http://www.w3.org/2000/svg">
<g id="Frame">
<path id="primary" d="M20.3404 10.1965V14.5016L21.8256 15.9869C22.1451 16.306 22.3628 16.7127 22.451 17.1556C22.5392 17.5985 22.494 18.0576 22.3211 18.4748C22.1483 18.8919 21.8555 19.2484 21.4799 19.4991C21.1043 19.7498 20.6628 19.8834 20.2112 19.883H7.55422C7.10265 19.8834 6.66112 19.7498 6.28552 19.4991C5.90993 19.2484 5.61717 18.8919 5.44431 18.4748C5.27144 18.0576 5.22625 17.5985 5.31446 17.1556C5.40267 16.7127 5.6203 16.306 5.93981 15.9869L7.42507 14.5016V10.1965C7.42507 8.48387 8.10542 6.84135 9.31647 5.6303C10.5275 4.41926 12.17 3.7389 13.8827 3.7389C14.9655 3.73679 16.0314 4.00697 16.9824 4.52458" stroke="#36CE8A" stroke-width="2.15255" stroke-linecap="round" stroke-linejoin="round"/>
<path id="primary_2" d="M17.1115 19.883H10.6538C10.6538 20.7393 10.994 21.5606 11.5995 22.1661C12.205 22.7716 13.0263 23.1118 13.8826 23.1118C14.739 23.1118 15.5602 22.7716 16.1658 22.1661C16.7713 21.5606 17.1115 20.7393 17.1115 19.883ZM16.0352 6.96771C16.0352 7.82405 16.3754 8.64531 16.9809 9.25083C17.5864 9.85636 18.4077 10.1965 19.264 10.1965C20.1203 10.1965 20.9416 9.85636 21.5471 9.25083C22.1526 8.64531 22.4928 7.82405 22.4928 6.96771C22.4928 6.11138 22.1526 5.29011 21.5471 4.68459C20.9416 4.07907 20.1203 3.73889 19.264 3.73889C18.4077 3.73889 17.5864 4.07907 16.9809 4.68459C16.3754 5.29011 16.0352 6.11138 16.0352 6.96771V6.96771Z" stroke="#36CE8A" stroke-width="2.15255" stroke-linecap="round" stroke-linejoin="round"/>
</g>
</svg>
