<svg width="25" height="25" viewBox="0 0 25 25" fill="none" xmlns="http://www.w3.org/2000/svg">
<g id="Frame">
<path id="primary" d="M9.375 3.125H19.7917C20.0679 3.125 20.3329 3.23475 20.5282 3.4301C20.7236 3.62545 20.8333 3.8904 20.8333 4.16667V20.8333C20.8333 21.1096 20.7236 21.3746 20.5282 21.5699C20.3329 21.7653 20.0679 21.875 19.7917 21.875H7.29167C7.0154 21.875 6.75045 21.7653 6.5551 21.5699C6.35975 21.3746 6.25 21.1096 6.25 20.8333V18.75" stroke="#011D35" stroke-width="2.66667" stroke-linecap="round" stroke-linejoin="round"/>
<path id="primary_2" d="M19.7916 16.6666H21.875M3.42704 9.46871L8.54162 14.5833H11.4583V11.6666L6.34371 6.55204C6.14899 6.36118 5.8872 6.25427 5.61454 6.25427C5.34188 6.25427 5.08009 6.36118 4.88537 6.55204L3.42704 8.01037C3.23618 8.20509 3.12927 8.46688 3.12927 8.73954C3.12927 9.0122 3.23618 9.27399 3.42704 9.46871V9.46871ZM19.7916 8.33329H21.875H19.7916ZM19.7916 12.5H21.875H19.7916Z" stroke="#011D35" stroke-width="2.66667" stroke-linecap="round" stroke-linejoin="round"/>
</g>
</svg>
