<svg width="27" height="27" viewBox="0 0 27 27" fill="none" xmlns="http://www.w3.org/2000/svg">
<g id="Frame">
<path id="primary" d="M17.1116 13.1719C17.1116 13.8105 16.9222 14.4348 16.5674 14.9658C16.2126 15.4968 15.7084 15.9106 15.1184 16.155C14.5284 16.3994 13.8792 16.4633 13.2528 16.3387C12.6265 16.2141 12.0512 15.9066 11.5996 15.4551C11.1481 15.0035 10.8406 14.4282 10.716 13.8018C10.5914 13.1755 10.6553 12.5263 10.8997 11.9363C11.1441 11.3463 11.5579 10.8421 12.0889 10.4873C12.6199 10.1325 13.2442 9.94312 13.8828 9.94312C14.7391 9.94312 15.5604 10.2833 16.1659 10.8888C16.7714 11.4943 17.1116 12.3156 17.1116 13.1719ZM22.4929 11.0194H21.8579C21.6355 11.0185 21.4187 10.9487 21.2375 10.8196C21.0564 10.6904 20.9197 10.5083 20.8462 10.2983C20.7505 10.0967 20.7198 9.87032 20.7583 9.6505C20.7969 9.43068 20.9028 9.22829 21.0615 9.07133L21.5028 8.63006C21.6036 8.53001 21.6837 8.41097 21.7384 8.27982C21.793 8.14866 21.8211 8.00799 21.8211 7.86591C21.8211 7.72383 21.793 7.58315 21.7384 7.452C21.6837 7.32084 21.6036 7.20181 21.5028 7.10175L19.9745 5.56268C19.8744 5.4618 19.7554 5.38174 19.6242 5.3271C19.4931 5.27245 19.3524 5.24432 19.2103 5.24432C19.0682 5.24432 18.9276 5.27245 18.7964 5.3271C18.6652 5.38174 18.5462 5.4618 18.4462 5.56268L18.0049 6.00395C17.8479 6.16262 17.6455 6.26856 17.4257 6.30713C17.2059 6.34569 16.9795 6.31497 16.7779 6.21921C16.5621 6.14885 16.3741 6.01208 16.2408 5.82844C16.1074 5.64481 16.0355 5.42371 16.0353 5.19675V4.56175C16.0353 4.2763 15.9219 4.00255 15.7201 3.80071C15.5182 3.59887 15.2445 3.48547 14.959 3.48547H12.8065C12.521 3.48547 12.2473 3.59887 12.0454 3.80071C11.8436 4.00255 11.7302 4.2763 11.7302 4.56175V5.19675C11.7293 5.41923 11.6595 5.63598 11.5304 5.81715C11.4012 5.99833 11.2191 6.13503 11.0091 6.20845V6.20845C10.8075 6.30421 10.5811 6.33493 10.3613 6.29637C10.1415 6.2578 9.9391 6.15185 9.78215 5.99319L9.34088 5.55192C9.24082 5.45104 9.12179 5.37097 8.99063 5.31633C8.85948 5.26169 8.7188 5.23356 8.57672 5.23356C8.43464 5.23356 8.29397 5.26169 8.16281 5.31633C8.03166 5.37097 7.91262 5.45104 7.81257 5.55192L6.2735 7.08023C6.17262 7.18028 6.09255 7.29932 6.03791 7.43047C5.98327 7.56163 5.95514 7.7023 5.95514 7.84438C5.95514 7.98646 5.98327 8.12714 6.03791 8.25829C6.09255 8.38945 6.17262 8.50848 6.2735 8.60854L6.71477 9.04981C6.87343 9.20676 6.97938 9.40916 7.01794 9.62898C7.05651 9.8488 7.02578 10.0752 6.93002 10.2768C6.85661 10.4868 6.7199 10.6689 6.53873 10.798C6.35755 10.9272 6.14081 10.997 5.91833 10.9979H5.27256C4.98712 10.9979 4.71336 11.1113 4.51152 11.3131C4.30968 11.5149 4.19629 11.7887 4.19629 12.0741V14.2267C4.19629 14.5121 4.30968 14.7859 4.51152 14.9877C4.71336 15.1896 4.98712 15.303 5.27256 15.303H5.90756C6.13005 15.3038 6.34679 15.3737 6.52797 15.5028C6.70914 15.6319 6.84584 15.814 6.91926 16.0241V16.0241C7.01502 16.2257 7.04575 16.452 7.00718 16.6718C6.96862 16.8917 6.86267 17.0941 6.70401 17.251L6.26273 17.6923C6.16186 17.7923 6.08179 17.9114 6.02715 18.0425C5.97251 18.1737 5.94437 18.3144 5.94437 18.4564C5.94437 18.5985 5.97251 18.7392 6.02715 18.8704C6.08179 19.0015 6.16186 19.1205 6.26273 19.2206L7.78028 20.7381C7.88033 20.839 7.99937 20.9191 8.13053 20.9737C8.26168 21.0284 8.40235 21.0565 8.54444 21.0565C8.68652 21.0565 8.82719 21.0284 8.95835 20.9737C9.0895 20.9191 9.20854 20.839 9.30859 20.7381L9.74986 20.2969C9.90682 20.1382 10.1092 20.0323 10.329 19.9937C10.5489 19.9551 10.7752 19.9859 10.9768 20.0816C11.1868 20.155 11.3689 20.2917 11.4981 20.4729C11.6272 20.6541 11.697 20.8708 11.6979 21.0933V21.7821C11.6979 22.0676 11.8113 22.3413 12.0132 22.5432C12.215 22.745 12.4887 22.8584 12.7742 22.8584H14.9267C15.2122 22.8584 15.4859 22.745 15.6878 22.5432C15.8896 22.3413 16.003 22.0676 16.003 21.7821V21.1471C16.0039 20.9246 16.0737 20.7079 16.2028 20.5267C16.332 20.3455 16.5141 20.2088 16.7241 20.1354C16.9257 20.0397 17.1521 20.0089 17.3719 20.0475C17.5917 20.0861 17.7941 20.192 17.9511 20.3507L18.3923 20.792C18.4924 20.8928 18.6114 20.9729 18.7426 21.0275C18.8737 21.0822 19.0144 21.1103 19.1565 21.1103C19.2986 21.1103 19.4393 21.0822 19.5704 21.0275C19.7016 20.9729 19.8206 20.8928 19.9206 20.792L21.4382 19.2744C21.5391 19.1744 21.6191 19.0553 21.6738 18.9242C21.7284 18.793 21.7566 18.6523 21.7566 18.5103C21.7566 18.3682 21.7284 18.2275 21.6738 18.0963C21.6191 17.9652 21.5391 17.8462 21.4382 17.7461L20.9969 17.3048C20.8383 17.1479 20.7323 16.9455 20.6937 16.7257C20.6552 16.5058 20.6859 16.2795 20.7817 16.0779V16.0779C20.8551 15.8679 20.9918 15.6857 21.173 15.5566C21.3541 15.4275 21.5709 15.3577 21.7934 15.3568H22.4929C22.7784 15.3568 23.0521 15.2434 23.254 15.0415C23.4558 14.8397 23.5692 14.5659 23.5692 14.2805V12.0957C23.5692 11.8102 23.4558 11.5365 23.254 11.3346C23.0521 11.1328 22.7784 11.0194 22.4929 11.0194Z" stroke="#36CE8A" stroke-width="2.15255" stroke-linecap="round" stroke-linejoin="round"/>
</g>
</svg>
